<?xml version="1.0" standalone="no"?>
<!DOCTYPE svg PUBLIC "-//W3C//DTD SVG 20010904//EN"
 "http://www.w3.org/TR/2001/REC-SVG-20010904/DTD/svg10.dtd">
<svg version="1.0" xmlns="http://www.w3.org/2000/svg"
 width="1144.000000pt" height="1144.000000pt" viewBox="0 0 1144.000000 1144.000000"
 preserveAspectRatio="xMidYMid meet">
<metadata>
Created by potrace 1.11, written by Peter Selinger 2001-2013
</metadata>
<g transform="translate(0.000000,1144.000000) scale(0.100000,-0.100000)"
fill="#000000" stroke="none">
<path d="M8747 8804 c-2 -2 -37 -6 -78 -10 -102 -9 -124 -12 -124 -14 0 -1
-16 -4 -35 -5 -44 -4 -115 -13 -115 -15 0 -1 -7 -3 -15 -5 -8 -1 -40 -8 -71
-14 -30 -6 -67 -14 -82 -16 -37 -7 -257 -79 -303 -100 -120 -54 -279 -139
-308 -166 -11 -11 -23 -19 -27 -19 -6 0 -38 -24 -120 -91 -69 -56 -192 -183
-242 -250 -10 -13 -31 -42 -47 -64 -16 -22 -34 -45 -40 -52 -5 -7 -10 -14 -10
-17 0 -2 -18 -34 -40 -70 -22 -36 -40 -69 -40 -73 0 -5 -7 -16 -14 -25 -12
-16 -16 -15 -48 15 -19 18 -59 52 -87 77 -29 25 -66 58 -84 74 -18 15 -66 54
-107 85 -41 31 -77 59 -80 62 -3 3 -20 14 -37 24 -18 11 -33 23 -33 27 0 4 -6
8 -14 8 -8 0 -21 6 -28 13 -46 44 -352 206 -513 271 -49 20 -99 41 -110 45
-30 13 -314 99 -351 107 -7 1 -45 9 -85 19 -41 9 -87 18 -104 21 -16 2 -41 6
-55 9 -57 11 -77 14 -120 19 -25 3 -67 8 -95 12 -61 7 -132 12 -290 20 -161 8
-2023 11 -2104 3 -68 -7 -101 -28 -104 -67 -1 -12 -4 -22 -7 -22 -7 0 -4 -245
3 -264 4 -9 3 -16 -1 -16 -11 0 -7 -264 4 -283 9 -16 26 -18 124 -16 8 0 33 0
55 0 46 -1 55 -1 135 0 61 0 101 -1 143 -2 12 0 47 0 77 1 30 0 66 -1 80 -2
18 -3 30 4 43 25 l18 28 807 -4 c444 -2 825 -7 847 -10 22 -3 65 -9 95 -12 69
-6 256 -40 313 -56 23 -7 47 -13 53 -15 43 -8 209 -64 304 -101 122 -48 363
-168 368 -184 2 -5 9 -9 16 -9 14 0 167 -106 251 -174 71 -57 226 -211 282
-279 27 -32 53 -64 59 -70 58 -64 274 -427 274 -462 0 -6 4 -15 9 -20 12 -14
79 -185 85 -217 2 -15 7 -32 11 -38 3 -5 8 -18 10 -27 1 -10 11 -47 20 -83 9
-36 19 -76 21 -90 3 -14 7 -36 9 -50 12 -61 15 -76 21 -139 3 -36 8 -82 10
-101 5 -46 5 -346 0 -385 -3 -16 -7 -55 -10 -85 -11 -116 -39 -295 -46 -295
-1 0 -3 -8 -5 -17 -22 -118 -68 -253 -137 -406 -15 -35 -28 -65 -28 -67 0 -20
-186 -316 -210 -335 -4 -3 -11 -13 -16 -22 -33 -60 -240 -268 -369 -370 -33
-27 -64 -52 -70 -56 -118 -94 -394 -244 -565 -306 -41 -15 -88 -33 -105 -39
-16 -6 -34 -12 -40 -13 -5 -1 -43 -11 -83 -23 -40 -12 -85 -24 -100 -26 -15
-3 -45 -9 -67 -14 -90 -22 -265 -44 -450 -58 -88 -6 -1545 -11 -1562 -5 -7 2
-13 8 -13 14 0 32 -25 35 -332 35 -219 0 -312 -3 -324 -11 -16 -13 -18 -71
-14 -439 l2 -159 28 -31 28 -32 1059 1 c582 0 1103 3 1158 7 186 13 245 19
335 33 19 3 46 7 60 8 14 2 34 6 45 9 11 3 38 9 60 12 56 7 70 10 145 30 36 9
73 19 83 20 78 16 347 108 452 155 33 15 77 33 98 40 20 8 37 17 37 21 0 4 11
10 24 13 19 5 119 58 261 140 28 16 79 50 85 56 3 3 37 26 76 53 40 26 83 58
96 70 92 85 126 86 209 7 29 -28 74 -65 114 -93 98 -69 294 -197 303 -197 6 0
12 -3 14 -7 6 -16 355 -193 378 -193 5 0 10 -5 10 -12 0 -6 3 -9 6 -5 3 3 27
-4 52 -15 155 -67 479 -163 622 -183 24 -4 47 -8 50 -10 3 -2 26 -6 50 -9 25
-4 56 -9 70 -11 26 -5 89 -12 199 -22 92 -9 532 -9 611 0 36 4 83 10 105 12
22 2 56 7 75 11 19 3 49 8 65 11 71 11 86 15 245 60 69 19 130 38 135 41 6 4
15 7 20 8 6 1 27 9 47 18 21 9 40 16 43 17 2 0 31 13 64 29 33 17 65 30 70 30
6 0 11 3 11 8 0 4 15 13 33 21 41 18 226 138 250 163 10 10 22 18 26 18 15 0
228 217 262 267 18 26 36 50 40 53 9 7 79 118 79 125 0 4 8 19 18 33 50 74
134 318 157 457 20 121 25 356 11 475 -5 36 -10 76 -12 90 -1 14 -5 36 -8 50
-4 14 -8 36 -11 50 -13 70 -72 218 -133 335 -37 72 -147 209 -226 284 -27 25
-57 53 -65 61 -9 8 -41 33 -71 55 -30 21 -57 42 -60 46 -3 3 -36 24 -75 47
-38 23 -75 46 -82 52 -7 5 -19 10 -27 10 -8 0 -17 4 -20 9 -6 9 -99 56 -201
101 -27 12 -59 26 -70 31 -145 65 -603 203 -745 225 -19 3 -42 8 -50 11 -18 7
-26 9 -65 16 -16 3 -84 17 -150 31 -66 15 -133 29 -149 32 -16 3 -32 6 -35 8
-3 2 -22 7 -41 10 -19 3 -84 20 -145 36 -60 17 -119 33 -129 35 -26 6 -146 44
-171 55 -11 4 -42 16 -70 25 -27 10 -97 38 -155 63 -206 90 -327 167 -419 266
-20 21 -41 44 -46 50 -18 19 -51 69 -78 117 -23 42 -74 173 -75 192 -1 9 -10
51 -19 87 -3 14 -7 85 -8 158 -2 104 2 151 17 210 19 80 76 224 90 230 4 2 8
10 8 17 0 7 3 15 8 17 4 2 24 28 45 59 68 102 218 228 352 297 52 26 117 55
130 58 6 1 34 11 63 23 57 23 216 64 297 76 28 5 57 10 65 11 38 8 194 17 280
17 95 0 304 -15 320 -23 3 -1 9 -2 14 -1 5 1 30 -2 55 -8 25 -6 64 -13 86 -16
22 -3 64 -12 95 -20 30 -8 66 -16 80 -19 14 -3 41 -10 60 -16 19 -6 42 -13 51
-15 100 -22 359 -138 485 -217 34 -21 66 -38 72 -38 5 0 12 -7 16 -15 3 -8 10
-15 17 -15 6 0 28 -13 49 -30 21 -16 41 -30 44 -30 6 0 36 -23 61 -47 8 -7 17
-13 21 -13 3 0 14 -8 23 -18 29 -31 125 -99 150 -105 13 -3 34 -2 48 4 23 9
123 105 123 119 0 4 12 20 28 36 15 17 37 44 50 61 13 17 37 46 54 65 54 59
88 116 88 145 0 17 -11 41 -27 60 -29 32 -178 147 -233 179 -16 10 -30 22 -30
26 0 4 -5 8 -10 8 -6 0 -23 8 -38 19 -108 74 -350 205 -472 256 -25 10 -63 26
-85 36 -43 18 -249 89 -277 94 -9 2 -43 10 -75 19 -128 33 -261 59 -363 71
-25 3 -67 8 -95 11 -53 7 -532 14 -538 8z"/>
<path d="M2351 7804 c-14 -11 -16 -37 -16 -193 1 -132 4 -184 13 -193 10 -10
281 -13 1310 -13 713 0 1307 2 1320 5 29 7 36 19 107 190 31 74 63 149 71 167
8 17 14 35 14 40 0 4 -630 8 -1401 8 -1075 1 -1405 -2 -1418 -11z"/>
<path d="M1728 7192 c-25 -5 -27 -25 -25 -214 1 -116 6 -171 14 -179 10 -10
340 -13 1508 -13 1334 0 1497 2 1511 16 14 14 84 164 84 180 0 4 15 41 34 81
39 82 52 126 40 129 -19 3 -3150 4 -3166 0z"/>
<path d="M1033 6582 c-41 -4 -55 -28 -54 -90 1 -153 0 -266 -5 -273 -3 -5 4
-17 16 -29 20 -20 23 -20 1733 -20 941 0 1722 3 1733 6 19 5 58 66 66 104 2 8
5 17 8 20 6 6 63 139 93 218 11 29 17 55 14 59 -6 6 -3542 11 -3604 5z"/>
<path d="M201 5954 c-13 -10 -16 -38 -17 -189 0 -157 2 -179 17 -194 16 -15
177 -16 2001 -15 1091 1 1988 2 1995 3 14 1 43 52 67 116 11 28 29 73 42 100
64 144 71 163 63 176 -7 12 -331 14 -2080 14 -1577 0 -2075 -2 -2088 -11z"/>
<path d="M995 5336 c-14 -11 -24 -90 -13 -102 4 -3 3 -16 -2 -29 -5 -13 -6
-26 -2 -29 3 -4 5 -28 4 -54 -2 -26 -2 -65 -2 -87 0 -22 1 -49 1 -59 0 -11 7
-24 15 -30 10 -8 451 -11 1481 -10 l1467 0 19 34 c10 19 28 57 38 85 11 27 26
64 33 80 50 107 86 199 80 204 -11 11 -3104 8 -3119 -3z"/>
<path d="M1717 4718 c-11 -5 -14 -46 -15 -180 0 -95 1 -180 4 -189 2 -9 14
-20 27 -25 13 -6 415 -9 980 -8 906 1 958 2 977 19 11 10 20 24 20 30 0 7 13
41 28 76 30 67 44 101 46 109 1 3 6 14 12 25 25 47 56 136 50 142 -10 10
-2112 11 -2129 1z"/>
<path d="M2348 4099 c-10 -6 -13 -53 -13 -199 l0 -191 27 -7 c16 -4 257 -7
537 -6 537 0 541 1 541 45 0 11 4 19 8 19 5 0 9 6 9 13 1 6 31 81 67 164 36
84 66 156 66 161 0 10 -1225 12 -1242 1z"/>
</g>
</svg>
