<?xml version="1.0" encoding="utf-8"?>
<!-- Generator: Adobe Illustrator 16.0.0, SVG Export Plug-In . SVG Version: 6.00 Build 0)  -->
<!DOCTYPE svg PUBLIC "-//W3C//DTD SVG 1.1//EN" "http://www.w3.org/Graphics/SVG/1.1/DTD/svg11.dtd">
<svg version="1.1" id="Layer_1" xmlns="http://www.w3.org/2000/svg" xmlns:xlink="http://www.w3.org/1999/xlink" x="0px" y="0px"
	 width="286px" height="175px" viewBox="0 0 286 175" enable-background="new 0 0 286 175" xml:space="preserve">
<path fill-rule="evenodd" clip-rule="evenodd" fill="#0C598B" d="M175.635,36.02c7.159-14.35,19.341-22.035,34.771-24.584
	c23.471-3.877,44.658,1.665,63.155,16.562c1.514,1.218,1.648,2.424,0.397,3.979c-2.049,2.548-4.125,5.072-6.221,7.581
	c-1.433,1.714-2.693,1.798-4.424,0.35c-6.939-5.81-14.581-10.428-23.44-12.794c-11.121-2.967-22.312-3.692-33.396,0.12
	c-7.112,2.447-12.974,6.588-16.107,13.561c-2.51,5.584-2.446,11.269-0.516,17.169c2.182,6.666,7.194,10.283,13.113,13.079
	c8.59,4.058,17.836,6.062,27.099,7.99c10.927,2.272,21.642,5.177,31.323,10.896c9.423,5.567,15.69,13.391,17.295,24.269
	c2.818,19.102-6.212,34.953-23.739,43.069c-10.35,4.792-21.329,5.917-32.622,5.333c-18.107-0.938-34.078-7.253-48.269-18.17
	c-1.182-0.908-2.364-2.428-3.598-2.48c-1.112-0.047-2.291,1.538-3.446,2.395c-10.861,8.061-23.124,12.809-36.513,14.914
	c-6.05,0.951-12.147,1.159-18.258,1.159c-14.635,0-29.27,0.002-43.906-0.001c-3.211,0-3.852-0.629-3.853-3.748
	c-0.001-3.905,0.032-7.813-0.022-11.72c-0.015-1.022,0.189-1.438,1.356-1.42c4.653,0.066,9.308,0.027,13.962,0.024
	c0.679,0,1.333-0.098,1.445,0.898c0.064,0.578,0.703,0.421,1.122,0.418c12.949-0.088,25.914,0.459,38.843-0.256
	c13.869-0.766,26.553-5.065,37.31-13.975c11.417-9.458,17.649-21.681,19.344-36.144c1.33-11.352,0.051-22.403-4.952-32.84
	c-7.678-16.017-20.611-25.93-37.741-30.828c-6.44-1.843-13.047-2.594-19.747-2.594c-10.822,0-21.645-0.006-32.467,0.014
	c-0.732,0.001-1.75-0.43-1.871,0.952c-0.04,0.445-0.655,0.293-1.024,0.295c-4.822,0.009-9.645-0.019-14.467,0.026
	c-0.914,0.008-1.117-0.288-1.108-1.128c0.039-4.291-0.003-8.585,0.027-12.876c0.014-1.951,0.904-2.793,2.911-2.795
	c16.991-0.01,33.988-0.286,50.97,0.069c19.064,0.398,36.46,5.917,51.352,18.012C171.745,32.442,173.632,34.245,175.635,36.02z"/>
<path fill-rule="evenodd" clip-rule="evenodd" fill="#DEA428" d="M57.064,81.382c16.935,0,33.868,0.014,50.803-0.026
	c1.457-0.004,1.887,0.173,1.175,1.646c-1.149,2.38-2.174,4.824-3.107,7.297c-0.407,1.077-0.979,1.347-2.091,1.345
	c-13.906-0.039-27.812-0.025-41.718-0.025c-18.504,0-37.009-0.028-55.512,0.047c-1.774,0.008-2.159-0.501-2.057-2.103
	c0.14-2.191,0.127-4.404,0.002-6.599c-0.078-1.367,0.435-1.612,1.704-1.608c12.224,0.043,24.447,0.026,36.672,0.026
	C47.645,81.382,52.355,81.382,57.064,81.382z"/>
<path fill-rule="evenodd" clip-rule="evenodd" fill="#EEC41A" d="M70.34,65.945c14.681,0,29.362-0.002,44.043,0
	c1.896,0,1.898,0.006,1.153,1.754c-1.059,2.481-2.16,4.945-3.163,7.447c-0.344,0.86-0.826,1.125-1.747,1.125
	c-28.186-0.021-56.371-0.026-84.557,0.005c-1.247,0.002-1.659-0.328-1.606-1.579c0.101-2.359,0.096-4.729,0.002-7.09
	c-0.051-1.271,0.296-1.735,1.664-1.693c3.079,0.098,6.163,0.031,9.245,0.031C47.03,65.945,58.685,65.945,70.34,65.945z"/>
<path fill-rule="evenodd" clip-rule="evenodd" fill="#4AB96F" d="M82.835,50.58c12.722,0,25.443,0.019,38.164-0.027
	c1.472-0.006,1.861,0.179,1.151,1.647c-1.174,2.427-2.154,4.944-3.169,7.443c-0.323,0.796-0.697,1.197-1.687,1.196
	c-24.49-0.031-48.979-0.031-73.469-0.004c-1.092,0.001-1.302-0.406-1.282-1.354c0.052-2.474,0.1-4.953-0.016-7.423
	c-0.062-1.322,0.462-1.507,1.641-1.503C57.057,50.594,69.946,50.58,82.835,50.58z"/>
<path fill-rule="evenodd" clip-rule="evenodd" fill="#3796D3" d="M103.102,96.85c-1.423,3.358-2.762,6.543-4.122,9.72
	c-0.362,0.844-1.162,0.501-1.774,0.502c-10.591,0.02-21.18,0.015-31.771,0.015c-13,0-26-0.036-38.999,0.042
	c-1.685,0.012-2.075-0.471-1.98-2.019c0.138-2.245,0.118-4.51,0.004-6.759c-0.065-1.29,0.402-1.529,1.618-1.526
	c13.616,0.041,27.233,0.025,40.849,0.025c11.375,0,22.75,0,34.125,0C101.658,96.85,102.264,96.85,103.102,96.85z"/>
<path fill-rule="evenodd" clip-rule="evenodd" fill="#3796D3" d="M129.39,35.113c-1.429,3.364-2.767,6.495-4.082,9.635
	c-0.286,0.683-0.846,0.599-1.401,0.599c-2.523,0-5.047,0-7.57,0c-18.727,0-37.454-0.021-56.181,0.039
	c-1.532,0.005-1.888-0.421-1.815-1.834c0.12-2.306,0.111-4.625,0.001-6.93c-0.061-1.27,0.37-1.541,1.602-1.537
	c14.914,0.042,29.828,0.028,44.742,0.028C112.813,35.113,120.939,35.113,129.39,35.113z"/>
<path fill-rule="evenodd" clip-rule="evenodd" fill="#197697" d="M96.423,112.562c-1.324,3.107-2.672,6.229-3.982,9.364
	c-0.367,0.88-1.1,0.611-1.72,0.612c-5.27,0.02-10.541,0.011-15.812,0.011c-10.261,0-20.521-0.021-30.782,0.027
	c-1.238,0.007-1.655-0.274-1.603-1.542c0.105-2.526,0.049-5.06,0.021-7.59c-0.008-0.712,0.094-1.097,0.984-1.093
	c17.549,0.038,35.098,0.047,52.646,0.066C96.218,112.419,96.26,112.466,96.423,112.562z"/>
<path fill-rule="evenodd" clip-rule="evenodd" fill="#0F588B" d="M89.922,127.833c-1.444,3.393-2.767,6.467-4.057,9.554
	c-0.232,0.556-0.582,0.689-1.152,0.689c-8.464-0.016-16.928-0.018-25.392,0c-0.741,0.003-0.967-0.272-0.962-0.965
	c0.024-2.807,0.022-5.611,0.001-8.417c-0.005-0.622,0.203-0.872,0.863-0.87C69.364,127.837,79.504,127.833,89.922,127.833z"/>
<path fill-rule="evenodd" clip-rule="evenodd" fill="#FFFFFF" d="M195.359,84.876c4.137,1.862,8.186,3.399,12.329,4.702
	c7.745,2.436,15.758,3.763,23.645,5.614c6.865,1.611,13.509,3.771,19.917,6.786c16.582,7.805,14.724,29.222,3.98,37.915
	c-6.016,4.868-12.934,7.388-20.555,8.107c-19.982,1.887-37.462-3.889-52.548-16.817c-0.665-0.57-0.979-0.903-0.32-1.812
	c9.303-12.823,13.523-27.211,13.551-42.865C195.36,86.031,195.359,85.555,195.359,84.876z"/>
<path fill-rule="evenodd" clip-rule="evenodd" fill="#FFFFFF" d="M194.048,71.488c6.345,4.357,13.375,6.804,20.575,8.869
	c7.473,2.145,15.184,3.298,22.696,5.275c8.573,2.255,16.912,5.065,24.242,10.176c8.074,5.628,12.214,13.296,12.706,23.019
	c0.901,17.838-10.14,30.616-26.372,36.108c-9.576,3.242-19.435,3.557-29.384,2.571c-16.574-1.643-30.957-8.295-43.689-18.642
	c-0.212-0.173-0.404-0.371-0.625-0.574c1.047-1.117,2.156-2.144,3.064-3.321c0.69-0.895,1.123-0.67,1.829-0.077
	c4.738,3.978,9.81,7.486,15.324,10.366c9.78,5.107,20.246,7.459,31.278,7.801c7.938,0.246,15.662-0.579,22.981-3.73
	c8.914-3.84,15.836-9.779,18.421-19.273c2.631-9.661,1.771-18.943-5.661-26.629c-4.423-4.573-10.178-7.084-16.102-9.221
	c-8.068-2.908-16.49-4.459-24.847-6.274c-8.32-1.808-16.45-4.201-24.104-7.975c-0.92-0.454-1.396-0.961-1.467-2.079
	C194.784,75.806,194.372,73.752,194.048,71.488z"/>
<path fill-rule="evenodd" clip-rule="evenodd" fill="#FFFFFF" d="M183.765,46.129c-1.497-1.975-2.822-3.718-4.141-5.465
	c-0.467-0.618-0.007-1.152,0.212-1.684c3.467-8.4,9.695-14.268,17.752-18.359c9.042-4.592,18.75-5.832,28.823-5.502
	c15.326,0.505,29.018,5.295,41.199,14.4c1.065,0.796,1.192,1.305,0.277,2.242c-0.965,0.99-1.648,2.729-2.736,2.982
	c-1.133,0.266-2.235-1.367-3.344-2.174c-13.927-10.131-29.602-13.992-46.707-12.222c-9.125,0.944-17.372,4.157-23.929,10.76
	C187.101,35.205,184.655,40.112,183.765,46.129z"/>
</svg>
